<svg width="1232" height="664" viewBox="0 0 1232 664" fill="none" xmlns="http://www.w3.org/2000/svg">
<rect width="1232" height="664" rx="12" fill="#00B0B5"/>
<path d="M595.358 201.836C595.707 208.455 590.301 213.834 583.673 213.834H509.738C503.111 213.834 497.798 208.445 497.177 201.847C491.128 137.577 436.951 87.1114 371.243 87.1114C305.535 87.1114 251.359 137.577 245.31 201.847C244.689 208.445 239.376 213.834 232.748 213.834H158.813C152.186 213.834 146.78 208.455 147.129 201.836C153.373 83.4102 251.501 -11 371.243 -11C490.986 -11 589.113 83.4102 595.358 201.836Z" fill="white" fill-opacity="0.15"/>
<path d="M1085.08 201.836C1085.43 208.455 1080.03 213.834 1073.4 213.834H999.464C992.837 213.834 987.524 208.445 986.903 201.847C980.854 137.577 926.678 87.1114 860.969 87.1114C795.261 87.1114 741.085 137.577 735.036 201.847C734.415 208.445 729.102 213.834 722.474 213.834H648.539C641.912 213.834 636.506 208.455 636.855 201.836C643.099 83.4102 741.227 -11 860.969 -11C980.712 -11 1078.84 83.4102 1085.08 201.836Z" fill="white" fill-opacity="0.15"/>
<path d="M616.343 585.888C428.578 585.888 273.343 445.399 248.828 263.881C248.006 257.796 242.876 253.142 236.736 253.142H161.848C154.83 253.142 149.298 259.166 150.072 266.142C176.107 500.846 375.203 684 616.291 684C857.378 684 1056.47 500.846 1082.51 266.142C1083.28 259.166 1077.75 253.142 1070.73 253.142H995.85C989.709 253.142 984.578 257.8 983.758 263.887C959.338 445.353 804.105 585.888 616.343 585.888Z" fill="white" fill-opacity="0.15"/>
</svg>
