<svg width="20" height="19" viewBox="0 0 20 19" fill="none" xmlns="http://www.w3.org/2000/svg">
<path fill-rule="evenodd" clip-rule="evenodd" d="M7.14905 1.73484C7.21937 1.66451 7.31476 1.625 7.41421 1.625H8C8.20711 1.625 8.375 1.79289 8.375 2V2.71933L8.03692 3.01985C7.62766 3.38363 7.30614 3.8354 7.09648 4.34124L6.97995 4.62241C6.78208 5.09979 7.13294 5.625 7.6497 5.625H10.3503C10.8671 5.625 11.2179 5.09979 11.0201 4.62241L10.9035 4.34124C10.6939 3.8354 10.3723 3.38363 9.96308 3.01985L9.625 2.71933V2C9.625 1.10254 8.89746 0.375 8 0.375H7.41421C6.98324 0.375 6.56991 0.546205 6.26516 0.850951L3.85095 3.26517C3.5462 3.56991 3.375 3.98324 3.375 4.41421V10.3751H1.05C0.677205 10.3751 0.375 10.6773 0.375 11.0501V11.9501C0.375 12.3228 0.677198 12.6251 1.05 12.6251H1.875V14.5649C1.875 15.3243 2.01546 16.0942 2.40338 16.7666C2.79817 17.4509 3.42482 17.9907 4.31327 18.3128L4.34497 18.3243L5.21298 18.5368C5.54643 18.6256 5.94908 18.6253 6.18106 18.6251L6.21053 18.6251H13.7895C13.9503 18.6251 14.1898 18.6047 14.365 18.5878C14.4578 18.5789 14.5421 18.5701 14.6031 18.5634L14.676 18.5553L14.6962 18.553L14.7039 18.5521L14.7425 18.5477L15.655 18.3243L15.6867 18.3128C16.5661 17.994 17.1957 17.4765 17.5945 16.796C17.986 16.1279 18.125 15.3545 18.125 14.5649V12.6251H18.95C19.3228 12.6251 19.625 12.3228 19.625 11.9501V11.0501C19.625 10.6773 19.3228 10.3751 18.95 10.3751L4.625 10.3751V4.41421C4.625 4.31476 4.66451 4.21937 4.73483 4.14905L7.14905 1.73484Z" fill="#1C4075"/>
</svg>
