<svg width="20" height="16" viewBox="0 0 20 16" fill="none" xmlns="http://www.w3.org/2000/svg">
<path fill-rule="evenodd" clip-rule="evenodd" d="M20 15.5C20 15.7761 19.7761 16 19.5 16H18.5C18.2239 16 18 15.7761 18 15.5V12H2V15.5C2 15.7761 1.77614 16 1.5 16H0.5C0.223858 16 0 15.7761 0 15.5V0.5C0 0.223858 0.223858 0 0.5 0H1.5C1.77614 0 2 0.223858 2 0.5V9H19C19.5523 9 20 9.44771 20 10V15.5ZM18 4H10C8.89543 4 8 4.89543 8 6V7.5C8 7.77614 8.22386 8 8.5 8H19.5C19.7761 8 20 7.77614 20 7.5V6C20 4.89543 19.1046 4 18 4ZM7 7.5C7 7.77614 6.77614 8 6.5 8H3.5C3.22386 8 3 7.77614 3 7.5V7C3 5.89543 3.89543 5 5 5C6.10457 5 7 5.89543 7 7V7.5Z" fill="#1C4075"/>
</svg>
