
<svg width="18" height="16" viewBox="0 0 18 16" fill="none" xmlns="http://www.w3.org/2000/svg">
<path fill-rule="evenodd" clip-rule="evenodd" d="M17.85 6.46C17.9495 6.8182 18 7.18824 18 7.56V15C18 15.5523 17.5523 16 17 16H16C15.4477 16 15 15.5523 15 15V14H3V15C3 15.5523 2.55228 16 2 16H1C0.447715 16 7.65922e-08 15.5523 7.65922e-08 15V7.56C-0.000888081 7.18489 0.0495805 6.81142 0.15 6.45L1.59 1.45C1.83313 0.599773 2.60575 0.0101368 3.49 0H14.49C15.3845 0.00255953 16.1685 0.598739 16.41 1.46L17.85 6.46ZM3.51 1.75C3.39889 1.75 3.30111 1.82333 3.27 1.93L2.11 6H15.89L14.75 1.93C14.7189 1.82333 14.6211 1.75 14.51 1.75H3.51ZM5 10C5 10.5523 4.55228 11 4 11H3C2.44772 11 2 10.5523 2 10V9C2 8.44771 2.44772 8 3 8H4C4.55228 8 5 8.44771 5 9V10ZM15 11C15.5523 11 16 10.5523 16 10V9C16 8.44771 15.5523 8 15 8H14C13.4477 8 13 8.44771 13 9V10C13 10.5523 13.4477 11 14 11H15Z" fill="#1C4075"/>
</svg>
